<svg width="24.000000" height="24.000000" viewBox="0 0 24 24" fill="none" xmlns="http://www.w3.org/2000/svg" xmlns:xlink="http://www.w3.org/1999/xlink">
	<desc>
			Created with Pixso.
	</desc>
	<defs>
		<clipPath id="clip1_73">
			<rect id="instagram" rx="-0.500000" width="23.000000" height="23.000000" transform="translate(0.500000 0.500000)" fill="white" fill-opacity="0"/>
		</clipPath>
	</defs>
	<g clip-path="url(#clip1_73)">
		<path id="Vector" d="M7.79 2L16.2 2C19.4 2 22 4.59 22 7.8L22 16.2C22 19.4 19.4 22 16.2 22L7.79 22C4.59 22 2 19.4 2 16.2L2 7.8C2 4.59 4.59 2 7.79 2ZM7.59 4C5.61 4 4 5.61 4 7.6L4 16.4C4 18.38 5.61 20 7.59 20L16.4 20C18.38 20 20 18.38 20 16.4L20 7.6C20 5.61 18.38 4 16.4 4L7.59 4ZM17.25 5.5C17.94 5.5 18.5 6.05 18.5 6.75C18.5 7.44 17.94 8 17.25 8C16.55 8 16 7.44 16 6.75C16 6.05 16.55 5.5 17.25 5.5ZM12 7C14.76 7 17 9.23 17 12C17 14.76 14.76 17 12 17C9.23 17 7 14.76 7 12C7 9.23 9.23 7 12 7ZM12 9C10.34 9 9 10.34 9 12C9 13.65 10.34 15 12 15C13.65 15 15 13.65 15 12C15 10.34 13.65 9 12 9Z" fill="#FFFFFF" fill-opacity="1.000000" fill-rule="nonzero"/>
	</g>
</svg>
