<svg width="24.000000" height="24.000000" viewBox="0 0 24 24" fill="none" xmlns="http://www.w3.org/2000/svg" xmlns:xlink="http://www.w3.org/1999/xlink">
	<desc>
			Created with Pixso.
	</desc>
	<defs>
		<clipPath id="clip1_83">
			<rect id="twitter" rx="-0.500000" width="23.000000" height="23.000000" transform="translate(0.500000 0.500000)" fill="white" fill-opacity="0"/>
		</clipPath>
	</defs>
	<g clip-path="url(#clip1_83)">
		<path id="Vector" d="M22.45 6.01C21.68 6.35 20.86 6.58 19.99 6.68C20.88 6.15 21.56 5.31 21.88 4.31C21.05 4.8 20.13 5.16 19.15 5.35C18.37 4.52 17.25 4 16.02 4C13.65 4 11.73 5.92 11.73 8.29C11.73 8.62 11.76 8.95 11.84 9.26C8.27 9.09 5.11 7.38 2.99 4.78C2.62 5.41 2.41 6.15 2.41 6.94C2.41 8.43 3.17 9.74 4.32 10.51C3.62 10.49 2.95 10.29 2.38 9.97C2.38 9.99 2.38 10.01 2.38 10.03C2.38 12.11 3.86 13.84 5.82 14.24C5.46 14.33 5.08 14.39 4.69 14.39C4.41 14.39 4.14 14.36 3.88 14.31C4.43 16.01 6.01 17.26 7.89 17.29C6.42 18.44 4.57 19.13 2.56 19.13C2.21 19.13 1.87 19.11 1.54 19.07C3.44 20.28 5.69 21 8.11 21C16.01 21 20.33 14.46 20.33 8.78C20.33 8.6 20.32 8.41 20.31 8.23C21.15 7.62 21.88 6.87 22.45 6.01Z" fill="#FFFFFF" fill-opacity="1.000000" fill-rule="nonzero"/>
	</g>
</svg>
